<?xml version="1.0" encoding="UTF-8" standalone="no"?>
<svg
   width="512"
   height="512"
   viewBox="0 0 512 512"
   version="1.1"
   id="svg14"
   sodipodi:docname="pk-favicon.svg"
   inkscape:version="1.1 (c68e22c387, 2021-05-23)"
   xmlns:inkscape="http://www.inkscape.org/namespaces/inkscape"
   xmlns:sodipodi="http://sodipodi.sourceforge.net/DTD/sodipodi-0.dtd"
   xmlns="http://www.w3.org/2000/svg"
   xmlns:svg="http://www.w3.org/2000/svg">
  <sodipodi:namedview
     id="namedview16"
     pagecolor="#ffffff"
     bordercolor="#999999"
     borderopacity="1"
     inkscape:pageshadow="0"
     inkscape:pageopacity="0"
     inkscape:pagecheckerboard="0"
     showgrid="false"
     inkscape:zoom="1.4707031"
     inkscape:cx="256"
     inkscape:cy="226.76228"
     inkscape:window-width="1920"
     inkscape:window-height="1177"
     inkscape:window-x="-8"
     inkscape:window-y="-8"
     inkscape:window-maximized="1"
     inkscape:current-layer="svg14" />
  <style
     id="style2">
      path {
        fill: #000;
      }
      @media (prefers-color-scheme: dark) {
        path {
          fill: #FFF;
        }
      }
  </style>
  <defs
     id="defs7">
    <clipPath
       id="clip-Favico">
      <rect
         width="512"
         height="512"
         id="rect4" />
    </clipPath>
  </defs>
  <g
     id="Favico"
     clip-path="url(#clip-Favico)"
     transform="translate(-104.03187,1.3598938)"
     style="fill:#000000;fill-opacity:1">
    <g
       id="Group_2"
       data-name="Group 2"
       transform="translate(118.885,20.294)"
       style="fill:#000000;fill-opacity:1">
      <g
         id="Group_3"
         data-name="Group 3"
         style="fill:#000000;fill-opacity:1">
        <path
           id="Path_2"
           data-name="Path 2"
           d="m 180.916,234.657 c 0,19.705 -3.79,23.495 -23.495,23.495 H 86.937 V 65.646 h 70.484 c 19.705,0 23.495,3.789 23.495,23.495 z M 35.4,20.931 V 492.342 H 86.937 V 302.868 h 85.642 c 40.168,0 59.874,-19.705 59.874,-59.874 V 80.8 c 0,-40.168 -19.705,-59.874 -59.874,-59.874 z"
           transform="translate(-35.4,-20.931)"
           style="fill:#000000;fill-opacity:1" />
      </g>
    </g>
    <path
       id="Path_2-2"
       data-name="Path 2"
       d="m 248.824,223.31 h 36.233 V 20.931 H 248.824 Z M 398.019,20.931 h -39.43 L 288.787,123.1 357.524,223.31 h 39.43 L 326.619,123.1 Z"
       transform="translate(-4.904,268.396)"
       style="fill:#000000;fill-opacity:1" />
  </g>
  <g
     aria-label="DEV"
     transform="rotate(43.033487)"
     id="text1560"
     style="font-size:133.333px;line-height:1.25;font-family:'Source Code Pro';-inkscape-font-specification:'Source Code Pro';fill:#000000;fill-opacity:1">
    <path
       d="m 261.30236,-125.85681 v -87.46644 h 21.59995 q 19.86661,0 30.13325,11.19997 10.39998,11.19997 10.39998,32.13325 0,20.93328 -10.39998,32.53325 -10.26664,11.59997 -29.59992,11.59997 z m 11.06664,-9.06665 h 9.73331 q 15.06663,0 22.39994,-9.19997 7.46665,-9.19998 7.46665,-25.8666 0,-16.66663 -7.46665,-25.4666 -7.33331,-8.79998 -22.39994,-8.79998 H 272.369 Z"
       id="path33381"
       style="fill:#000000;fill-opacity:1" />
    <path
       d="m 344.90195,-125.85681 v -87.46644 h 54.13319 v 9.3333 h -42.93322 v 27.4666 h 36.26657 v 9.46664 h -36.26657 v 31.73326 h 44.26655 v 9.46664 z"
       id="path33383"
       style="fill:#000000;fill-opacity:1" />
    <path
       d="m 443.3015,-125.85681 -27.8666,-87.46644 h 11.73331 l 14.13329,47.19987 q 2.26666,7.86665 4.13333,14.5333 1.86666,6.66665 4.26665,14.39996 h 0.53333 q 1.2,-3.86665 2.26666,-7.33331 1.06667,-3.59999 2,-7.06665 1.06666,-3.46666 1.99999,-7.06665 1.06667,-3.59999 2.13333,-7.46665 l 13.99997,-47.19987 h 11.3333 l -27.73326,87.46644 z"
       id="path33385"
       style="fill:#000000;fill-opacity:1" />
  </g>
</svg>
